# xmcd CD database file
#
# Track frame offsets:
#	150
#	18369
#	34313
#	47327
#	64300
#	75584
#	91728
#	108002
#	120150
#	133048
#	152264
#	168169
#	181245
#	196986
#	219521
#	232744
#	244897
#	253340
#	264692
#	276450
#	289467
#	301233
#	314842
#
# Disc length: 4375 seconds
#
# Revision: 0
# Processed by: cddbd v1.5.2PL0 Copyright (c) Steve Scherf et al.
# Submitted via: ACXtractor (MTCDDB.DLL V2003.12.21)
#
DISCID=3c111517
DTITLE=Check 2 - Our Town
DYEAR=1999
DGENRE=Country
TTITLE0=I Walk the Line
TTITLE1=Almost Persuaded
TTITLE2=Let the Heat Roll On
TTITLE3=Bird on a Wire
TTITLE4=I'm Blue for You
TTITLE5=Play the Waitz of the Angels
TTITLE6=Look At Us Then
TTITLE7=Just One Time
TTITLE8=We'll Sweep out the Ashes
TTITLE9=Our Town
TTITLE10=Blue Bayou
TTITLE11=Someone I Use to Know
TTITLE12=Rain On An Old Tin Roof
TTITLE13=Mississippi
TTITLE14=Sing Me Back Home
TTITLE15=Who's Sorry Now
TTITLE16=(I Wanna)  Love My Life Away/ Gene Pitney
TTITLE17=I Must be Seeing Things - Gene Pitney
TTITLE18=It Hurts to Be In Love
TTITLE19=Only Love can Break a Heart
TTITLE20=Princess in Rags/ Gene Pitney
TTITLE21=Liberty Valance
TTITLE22=Twenty Four Hours from Tulsa
EXTD=ID3G:   2 YEAR: 1999
EXTT0=
EXTT1=
EXTT2=
EXTT3=
EXTT4=
EXTT5=
EXTT6=
EXTT7=
EXTT8=
EXTT9=
EXTT10=
EXTT11=
EXTT12=
EXTT13=
EXTT14=
EXTT15=
EXTT16=
EXTT17=
EXTT18=
EXTT19=
EXTT20=
EXTT21=
EXTT22=
PLAYORDER=
